<svg width="30" height="30" viewBox="0 0 30 30" fill="none" xmlns="http://www.w3.org/2000/svg">
<g clip-path="url(#clip0_1_456)">
<path d="M30 15C30 14.8178 29.9967 14.6362 29.9903 14.4556C29.7037 6.42352 23.1021 0 15 0C6.89795 0 0.29625 6.42352 0.00972656 14.4556C0.00328125 14.6362 0 14.8178 0 15C0 23.2843 7.7052 29.4557 15 29.4557C22.427 29.4557 30 23.2843 30 15Z" fill="#1DA599"/>
<path d="M15 28.9112C6.89807 28.9112 0.297539 22.4875 0.0108984 14.4556C0.00439453 14.6364 0 14.8176 0 15C0 23.2842 6.71572 30 15 30C23.2843 30 30 23.2842 30 15C30 14.8176 29.9956 14.6364 29.9892 14.4556C29.7025 22.4876 23.1019 28.9112 15 28.9112Z" fill="#0F8E83"/>
<path d="M27.5056 14.4556C27.2206 7.79539 21.731 2.48328 15.0006 2.48328C8.27025 2.48328 2.7806 7.79539 2.4956 14.4556C2.48786 14.6361 2.49554 26.7205 15.0006 26.7205C27.5057 26.7205 27.5134 14.6361 27.5056 14.4556Z" fill="#E4EEF9"/>
<path d="M15.0011 26.4279C8.27074 26.4279 2.78197 21.1157 2.49686 14.4556C2.48912 14.6362 2.48438 14.8174 2.48438 14.9999C2.48438 21.9127 8.08828 27.5166 15.0011 27.5166C21.9138 27.5166 27.5177 21.9127 27.5177 15C27.5177 14.8175 27.5129 14.6362 27.5053 14.4556C27.2201 21.1157 21.7314 26.4279 15.0011 26.4279Z" fill="#D5E0F2"/>
<path d="M19.5487 10.6083C19.1919 10.2564 18.6175 10.2603 18.2657 10.6171L16.1367 12.7755L16.3506 13.803L17.3451 14.1343L19.5575 11.8913C19.9093 11.5346 19.9054 10.9601 19.5487 10.6083Z" fill="#405B6C"/>
<path d="M13.718 12.8583L8.88974 8.55563C8.51562 8.22223 7.94217 8.25528 7.60883 8.6294C7.27549 9.00346 7.30848 9.57698 7.6826 9.91032L12.6059 14.2977L13.6318 13.9555L13.718 12.8583Z" fill="#405B6C"/>
<path d="M21.4225 20.8499C21.3195 20.8499 21.2161 20.815 21.131 20.7436L15.3845 15.9167C15.1927 15.7556 15.1678 15.4694 15.3289 15.2777C15.49 15.0858 15.7762 15.0609 15.9681 15.222L21.7145 20.049C21.9063 20.2101 21.9313 20.4963 21.7701 20.688C21.6804 20.7949 21.5519 20.8499 21.4225 20.8499Z" fill="#86DCFF"/>
<path d="M12.605 14.2976L13.4523 15.0526L14.5404 14.6829L14.4814 13.5392L13.7172 12.8582C13.1854 13.1777 12.7829 13.6896 12.605 14.2976Z" fill="#2D4456"/>
<path d="M16.1344 12.7756L15.4141 13.5059V14.9395H16.5488L17.3429 14.1345C17.1246 13.5441 16.6895 13.0593 16.1344 12.7756Z" fill="#2D4456"/>
<path d="M16.4508 14.4555C16.2303 13.8678 15.6633 13.4495 14.9986 13.4495C14.334 13.4495 13.7669 13.8678 13.5465 14.4555C13.483 14.6249 13.5423 16.006 14.9986 16.006C16.455 16.006 16.5143 14.6249 16.4508 14.4555Z" fill="#1DA599"/>
<path d="M14.9999 15.4617C14.3352 15.4617 13.7684 15.0434 13.548 14.4557C13.4844 14.6251 13.4495 14.8084 13.4495 15C13.4495 15.8563 14.1436 16.5504 14.9999 16.5504C15.8561 16.5504 16.5502 15.8562 16.5502 15C16.5502 14.8084 16.5153 14.6251 16.4517 14.4557C16.2314 15.0433 15.6646 15.4617 14.9999 15.4617Z" fill="#0F8E83"/>
<path d="M15.4552 5.4827V4.07487C15.4552 3.82386 15.2517 3.62036 15.0007 3.62036C14.7497 3.62036 14.5462 3.82386 14.5462 4.07487V5.4827C14.5462 5.73372 14.7496 5.93722 15.0007 5.93722C15.2518 5.93722 15.4552 5.73372 15.4552 5.4827Z" fill="#405B6C"/>
<path d="M14.5462 24.517V25.9248C14.5462 26.1759 14.7496 26.3794 15.0007 26.3794C15.2518 26.3794 15.4552 26.1759 15.4552 25.9248V24.517C15.4552 24.266 15.2517 24.0625 15.0007 24.0625C14.7497 24.0625 14.5462 24.266 14.5462 24.517Z" fill="#405B6C"/>
<path d="M25.9233 15.4543C26.1743 15.4543 26.3778 15.2508 26.3778 14.9998C26.3778 14.7488 26.1743 14.5453 25.9233 14.5453H24.5154C24.2644 14.5453 24.0609 14.7488 24.0609 14.9998C24.0609 15.2508 24.2644 15.4543 24.5154 15.4543H25.9233Z" fill="#405B6C"/>
<path d="M4.07487 14.5453C3.8238 14.5453 3.62036 14.7488 3.62036 14.9998C3.62036 15.2508 3.8238 15.4543 4.07487 15.4543H5.4827C5.73378 15.4543 5.93722 15.2508 5.93722 14.9998C5.93722 14.7488 5.73372 14.5453 5.4827 14.5453H4.07487Z" fill="#405B6C"/>
</g>
<defs>
<clipPath id="clip0_1_456">
<rect width="30" height="30" fill="white"/>
</clipPath>
</defs>
</svg>
