<svg width="20" height="20" viewBox="0 0 20 20" fill="none" xmlns="http://www.w3.org/2000/svg">
<g clip-path="url(#clip0_1_487)">
<path d="M10.0009 15.657C13.1253 15.657 15.6581 13.1242 15.6581 9.99984C15.6581 6.87546 13.1253 4.34265 10.0009 4.34265C6.87656 4.34265 4.34375 6.87546 4.34375 9.99984C4.34375 13.1242 6.87656 15.657 10.0009 15.657Z" fill="#FFD347"/>
<path d="M10.0012 2.22066C9.83429 2.22066 9.69897 2.08539 9.69897 1.91844V0.302227C9.69897 0.135273 9.83429 0 10.0012 0C10.1681 0 10.3034 0.135273 10.3034 0.302227V1.91848C10.3034 2.08539 10.1681 2.22066 10.0012 2.22066Z" fill="#FFD347"/>
<path d="M5.95802 3.30338C5.85357 3.30338 5.75201 3.2492 5.69603 3.15224L4.88795 1.75256C4.80451 1.60802 4.854 1.42318 4.99857 1.3397C5.14314 1.25634 5.32795 1.30572 5.41142 1.45033L6.21951 2.85002C6.30294 2.99455 6.25345 3.17939 6.10888 3.26287C6.06126 3.29033 6.00931 3.30338 5.95802 3.30338Z" fill="#FFD347"/>
<path d="M2.99853 6.26126C2.94728 6.26126 2.89529 6.24821 2.84771 6.22071L1.44803 5.41263C1.3035 5.32919 1.25396 5.14435 1.3374 4.99978C1.42084 4.85521 1.60568 4.80575 1.75025 4.88915L3.14994 5.69724C3.29447 5.78067 3.344 5.96552 3.26057 6.11009C3.20455 6.20708 3.10299 6.26126 2.99853 6.26126Z" fill="#FFD347"/>
<path d="M1.91844 10.3023H0.302227C0.135313 10.3023 0 10.1671 0 10.0001C0 9.83315 0.135313 9.69788 0.302227 9.69788H1.91848C2.08539 9.69788 2.2207 9.83315 2.2207 10.0001C2.2207 10.1671 2.08535 10.3023 1.91844 10.3023Z" fill="#FFD347"/>
<path d="M1.60038 15.1511C1.49593 15.1511 1.39436 15.0969 1.33839 15C1.25495 14.8554 1.30444 14.6706 1.44901 14.5871L2.8487 13.779C2.99323 13.6957 3.17808 13.7451 3.26155 13.8897C3.34499 14.0342 3.2955 14.219 3.15093 14.3025L1.75124 15.1106C1.70362 15.138 1.65163 15.1511 1.60038 15.1511Z" fill="#FFD347"/>
<path d="M5.14963 18.7009C5.09838 18.7009 5.04639 18.6878 4.99881 18.6603C4.85428 18.5769 4.80475 18.3921 4.88818 18.2475L5.69627 16.8478C5.77971 16.7032 5.96455 16.6538 6.10912 16.7372C6.25366 16.8206 6.30319 17.0055 6.21975 17.15L5.41166 18.5497C5.35565 18.6467 5.25408 18.7009 5.14963 18.7009Z" fill="#FFD347"/>
<path d="M10.0012 20.0001C9.83429 20.0001 9.69897 19.8648 9.69897 19.6979V18.0816C9.69897 17.9147 9.83429 17.7794 10.0012 17.7794C10.1681 17.7794 10.3034 17.9147 10.3034 18.0816V19.6979C10.3034 19.8648 10.1681 20.0001 10.0012 20.0001Z" fill="#FFD347"/>
<path d="M14.8484 18.7008C14.744 18.7008 14.6424 18.6466 14.5864 18.5497L13.7783 17.15C13.6949 17.0055 13.7444 16.8206 13.889 16.7372C14.0335 16.6538 14.2183 16.7032 14.3018 16.8478L15.1099 18.2475C15.1933 18.392 15.1438 18.5768 14.9993 18.6603C14.9517 18.6878 14.8997 18.7008 14.8484 18.7008Z" fill="#FFD347"/>
<path d="M18.3972 15.151C18.346 15.151 18.294 15.138 18.2464 15.1105L16.8467 14.3024C16.7022 14.219 16.6526 14.0341 16.7361 13.8895C16.8195 13.745 17.0044 13.6955 17.1489 13.7789L18.5486 14.587C18.6932 14.6704 18.7427 14.8553 18.6592 14.9999C18.6032 15.0968 18.5017 15.151 18.3972 15.151Z" fill="#FFD347"/>
<path d="M19.6992 10.3023H18.083C17.9161 10.3023 17.7808 10.1671 17.7808 10.0001C17.7808 9.83315 17.9161 9.69788 18.083 9.69788H19.6992C19.8662 9.69788 20.0015 9.83315 20.0015 10.0001C20.0015 10.1671 19.8662 10.3023 19.6992 10.3023Z" fill="#FFD347"/>
<path d="M16.9978 6.26133C16.8934 6.26133 16.7918 6.20715 16.7358 6.1102C16.6524 5.96566 16.7019 5.78082 16.8465 5.69735L18.2462 4.88926C18.3907 4.8059 18.5755 4.85528 18.659 4.99989C18.7425 5.14442 18.693 5.32926 18.5484 5.41274L17.1487 6.22082C17.1011 6.24828 17.0491 6.26133 16.9978 6.26133Z" fill="#FFD347"/>
<path d="M14.04 3.30343C13.9888 3.30343 13.9368 3.29038 13.8892 3.26288C13.7447 3.17944 13.6951 2.9946 13.7786 2.85003L14.5866 1.45034C14.6701 1.30577 14.8549 1.25631 14.9995 1.33971C15.144 1.42315 15.1936 1.60799 15.1101 1.75256L14.302 3.15225C14.246 3.24925 14.1444 3.30343 14.04 3.30343Z" fill="#FFD347"/>
<path d="M9.99965 4.34302C9.79488 4.34302 9.5927 4.35419 9.39355 4.37536C12.2328 4.67782 14.4445 7.08052 14.4445 10C14.4445 12.9195 12.2328 15.3222 9.39355 15.6247C9.5927 15.6459 9.79484 15.657 9.99965 15.657C13.124 15.657 15.6567 13.1243 15.6567 10C15.6567 6.87571 13.124 4.34302 9.99965 4.34302Z" fill="#FFBE31"/>
</g>
<defs>
<clipPath id="clip0_1_487">
<rect width="20" height="20" fill="white"/>
</clipPath>
</defs>
</svg>
