<svg width="24" height="24" viewBox="0 0 24 24" fill="none" xmlns="http://www.w3.org/2000/svg">
<circle cx="12" cy="12" r="11.5" stroke="white"/>
<path d="M12 7C10.9391 7 9.92172 7.42143 9.17157 8.17157C8.42143 8.92172 8 9.93913 8 11C8 13.7 11.525 16.75 11.675 16.88C11.7656 16.9575 11.8808 17 12 17C12.1192 17 12.2344 16.9575 12.325 16.88C12.5 16.75 16 13.7 16 11C16 9.93913 15.5786 8.92172 14.8284 8.17157C14.0783 7.42143 13.0609 7 12 7ZM12 15.825C10.935 14.825 9 12.67 9 11C9 10.2044 9.31607 9.44129 9.87868 8.87868C10.4413 8.31607 11.2044 8 12 8C12.7956 8 13.5587 8.31607 14.1213 8.87868C14.6839 9.44129 15 10.2044 15 11C15 12.67 13.065 14.83 12 15.825ZM12 9C11.6044 9 11.2178 9.1173 10.8889 9.33706C10.56 9.55682 10.3036 9.86918 10.1522 10.2346C10.0009 10.6001 9.96126 11.0022 10.0384 11.3902C10.1156 11.7781 10.3061 12.1345 10.5858 12.4142C10.8655 12.6939 11.2219 12.8844 11.6098 12.9616C11.9978 13.0387 12.3999 12.9991 12.7654 12.8478C13.1308 12.6964 13.4432 12.44 13.6629 12.1111C13.8827 11.7822 14 11.3956 14 11C14 10.4696 13.7893 9.96086 13.4142 9.58579C13.0391 9.21071 12.5304 9 12 9ZM12 12C11.8022 12 11.6089 11.9414 11.4444 11.8315C11.28 11.7216 11.1518 11.5654 11.0761 11.3827C11.0004 11.2 10.9806 10.9989 11.0192 10.8049C11.0578 10.6109 11.153 10.4327 11.2929 10.2929C11.4327 10.153 11.6109 10.0578 11.8049 10.0192C11.9989 9.98063 12.2 10.0004 12.3827 10.0761C12.5654 10.1518 12.7216 10.28 12.8315 10.4444C12.9414 10.6089 13 10.8022 13 11C13 11.2652 12.8946 11.5196 12.7071 11.7071C12.5196 11.8946 12.2652 12 12 12Z" fill="white"/>
</svg>
