<svg width="24" height="24" viewBox="0 0 24 24" fill="none" xmlns="http://www.w3.org/2000/svg">
<circle cx="12" cy="12" r="11.5" stroke="white"/>
<path d="M15.7207 12.4999C15.6107 12.4999 15.4957 12.4649 15.3857 12.4399C15.1629 12.3908 14.944 12.3257 14.7307 12.2449C14.4987 12.1605 14.2437 12.1649 14.0148 12.2572C13.7859 12.3495 13.5992 12.5233 13.4907 12.7449L13.3807 12.9699C12.8937 12.699 12.4462 12.3625 12.0507 11.9699C11.658 11.5744 11.3216 11.1269 11.0507 10.6399L11.2607 10.4999C11.4823 10.3914 11.6561 10.2047 11.7484 9.97578C11.8407 9.74686 11.845 9.49189 11.7607 9.25993C11.6813 9.04614 11.6161 8.82733 11.5657 8.60493C11.5407 8.49493 11.5207 8.37993 11.5057 8.26493C11.4449 7.91274 11.2605 7.59381 10.9855 7.36555C10.7105 7.1373 10.363 7.01474 10.0057 7.01993H8.50566C8.29018 7.01791 8.07679 7.06234 7.88002 7.1502C7.68325 7.23806 7.50772 7.36728 7.36538 7.52908C7.22304 7.69087 7.11723 7.88143 7.05515 8.08779C6.99308 8.29415 6.9762 8.51146 7.00566 8.72493C7.27203 10.8196 8.22868 12.7659 9.72449 14.2563C11.2203 15.7466 13.17 16.6962 15.2657 16.9549H15.4557C15.8244 16.9555 16.1804 16.8202 16.4557 16.5749C16.6138 16.4335 16.7402 16.26 16.8264 16.0661C16.9126 15.8722 16.9566 15.6622 16.9557 15.4499V13.9499C16.9495 13.6026 16.8231 13.2682 16.5978 13.0038C16.3726 12.7393 16.0626 12.5612 15.7207 12.4999ZM15.9707 15.4999C15.9706 15.5709 15.9554 15.6411 15.9261 15.7057C15.8967 15.7704 15.854 15.8281 15.8007 15.8749C15.745 15.9234 15.6796 15.9596 15.609 15.9812C15.5383 16.0027 15.4639 16.0091 15.3907 15.9999C13.5181 15.7598 11.7788 14.9032 10.447 13.5651C9.11526 12.227 8.26687 10.4836 8.03566 8.60993C8.0277 8.53669 8.03468 8.4626 8.05616 8.39213C8.07765 8.32166 8.1132 8.25628 8.16066 8.19993C8.20752 8.1466 8.26519 8.10385 8.32985 8.07454C8.39451 8.04523 8.46467 8.03002 8.53566 8.02993H10.0357C10.1519 8.02735 10.2655 8.06537 10.3567 8.13747C10.448 8.20957 10.5113 8.31122 10.5357 8.42493C10.5557 8.5616 10.5807 8.6966 10.6107 8.82993C10.6684 9.09351 10.7453 9.35252 10.8407 9.60493L10.1407 9.92993C10.0808 9.95739 10.027 9.99641 9.98224 10.0447C9.93751 10.0931 9.90276 10.1497 9.88 10.2115C9.85723 10.2733 9.8469 10.339 9.84958 10.4048C9.85227 10.4706 9.86793 10.5352 9.89566 10.5949C10.6153 12.1363 11.8543 13.3753 13.3957 14.0949C13.5174 14.1449 13.6539 14.1449 13.7757 14.0949C13.838 14.0726 13.8953 14.0382 13.9442 13.9935C13.9932 13.9489 14.0327 13.895 14.0607 13.8349L14.3707 13.1349C14.6291 13.2274 14.893 13.3042 15.1607 13.3649C15.294 13.3949 15.429 13.4199 15.5657 13.4399C15.6794 13.4643 15.781 13.5276 15.8531 13.6189C15.9252 13.7101 15.9632 13.8237 15.9607 13.9399L15.9707 15.4999Z" fill="white"/>
</svg>
