<svg width="30" height="30" viewBox="0 0 30 30" fill="none" xmlns="http://www.w3.org/2000/svg">
<circle cx="15" cy="15" r="15" fill="#1DA599"/>
<g clip-path="url(#clip0_1_176)">
<path d="M11.6828 22.1191C8.99371 21.967 6.85256 19.7312 6.85256 17.0045C6.85256 14.1796 9.15062 11.8813 11.9753 11.8813C13.2386 11.8813 14.4517 12.3449 15.3911 13.1865C16.476 14.1569 17.0984 15.5486 17.0984 17.0044C17.0984 18.2253 16.6605 19.401 15.8791 20.3212C16.4333 20.6803 17.0695 20.8948 17.7326 20.9437C18.5306 19.782 18.951 18.4265 18.951 17.0044C18.951 15.4809 18.4686 14.0337 17.5562 12.8195C16.8311 11.8543 15.8662 11.0902 14.7655 10.6097C14.1555 10.3428 13.5176 10.1673 12.8606 10.0845C14.1886 9.10695 14.6964 8.28761 14.6964 7.57299C14.6964 6.71543 14.0013 6.02026 13.1437 6.02026C12.6777 6.02026 12.2601 6.22578 11.9755 6.55078C11.6909 6.22578 11.2731 6.02026 10.8072 6.02026C9.94965 6.02026 9.25448 6.71543 9.25448 7.57299C9.25448 8.28773 9.76245 9.10719 11.0909 10.085C7.66077 10.5209 5 13.4578 5 17.0045C5 20.8506 8.12908 23.9798 11.9753 23.9798C12.5071 23.9798 13.0291 23.9208 13.5373 23.8044C12.8391 23.3427 12.212 22.7744 11.6828 22.1191Z" fill="white"/>
<path d="M18.0265 10.0293C17.4946 10.0293 16.9726 10.0883 16.4644 10.2046C17.1627 10.6663 17.7898 11.2347 18.319 11.8899C21.008 12.0421 23.1492 14.2778 23.1492 17.0046C23.1492 19.8295 20.8512 22.1277 18.0265 22.1277C16.7632 22.1277 15.5501 21.6642 14.6107 20.8225C13.5258 19.852 12.9033 18.4603 12.9033 17.0046C12.9033 15.7837 13.3413 14.608 14.1227 13.6878C13.5685 13.3287 12.9323 13.1142 12.2692 13.0653C11.4711 14.227 11.0508 15.5824 11.0508 17.0045C11.0508 18.5281 11.5331 19.9752 12.4456 21.1895C13.1706 22.1547 14.1356 22.9188 15.2362 23.3993C16.1171 23.7846 17.0557 23.9798 18.0265 23.9798C21.8727 23.9798 25.0017 20.8507 25.0017 17.0045C25.0017 13.1584 21.8726 10.0293 18.0265 10.0293Z" fill="white"/>
</g>
<defs>
<clipPath id="clip0_1_176">
<rect width="20" height="20" fill="white" transform="translate(5 5)"/>
</clipPath>
</defs>
</svg>
