<svg width="30" height="30" viewBox="0 0 30 30" fill="none" xmlns="http://www.w3.org/2000/svg">
<circle cx="15" cy="15" r="15" fill="#F5F9FC"/>
<g clip-path="url(#clip0_1_96)">
<path d="M7.96193 13.877C8.0274 13.8664 8.09366 13.8614 8.15995 13.8623H19.4476L19.2015 13.7478C18.9609 13.634 18.742 13.479 18.5547 13.2899L15.3893 10.1246C14.9725 9.72661 14.9024 9.08642 15.2233 8.60772C15.5969 8.0976 16.3132 7.98685 16.8233 8.36037C16.8645 8.39056 16.9037 8.42348 16.9405 8.45889L22.6645 14.1828C23.1118 14.6297 23.1122 15.3545 22.6654 15.8018C22.6651 15.8021 22.6648 15.8024 22.6645 15.8027L16.9405 21.5267C16.4928 21.9731 15.768 21.9721 15.3215 21.5244C15.2864 21.4892 15.2536 21.4517 15.2233 21.4122C14.9024 20.9335 14.9725 20.2933 15.3893 19.8954L18.549 16.7243C18.7169 16.5561 18.91 16.4152 19.1214 16.3064L19.4648 16.1519H8.22295C7.63813 16.1736 7.12505 15.7651 7.01519 15.1903C6.91398 14.5662 7.33784 13.9782 7.96193 13.877Z" fill="#1DA599"/>
</g>
<defs>
<clipPath id="clip0_1_96">
<rect width="16" height="16" fill="white" transform="matrix(-1 0 0 1 23 7)"/>
</clipPath>
</defs>
</svg>
