<svg width="40" height="40" viewBox="0 0 40 40" fill="none" xmlns="http://www.w3.org/2000/svg">
<circle cx="20" cy="20" r="19.5" stroke="white"/>
<path d="M24.552 18.2934C24.4909 18.2029 24.4084 18.1289 24.312 18.0777C24.2155 18.0266 24.1079 17.9999 23.9987 18.0001H21.9987V16.6667H23.4654C23.6422 16.6667 23.8117 16.5965 23.9368 16.4715C24.0618 16.3465 24.132 16.1769 24.132 16.0001V13.3334C24.132 13.1566 24.0618 12.987 23.9368 12.862C23.8117 12.737 23.6422 12.6667 23.4654 12.6667H21.332C20.3065 12.6667 19.323 13.0741 18.5979 13.7993C17.8727 14.5244 17.4654 15.5079 17.4654 16.5334V18.0001H15.9987C15.8219 18.0001 15.6523 18.0703 15.5273 18.1953C15.4023 18.3204 15.332 18.4899 15.332 18.6667V21.3334C15.332 21.5102 15.4023 21.6798 15.5273 21.8048C15.6523 21.9298 15.8219 22.0001 15.9987 22.0001H17.4654V26.6667C17.4654 26.8436 17.5356 27.0131 17.6606 27.1382C17.7857 27.2632 17.9552 27.3334 18.132 27.3334H21.332C21.5088 27.3334 21.6784 27.2632 21.8034 27.1382C21.9285 27.0131 21.9987 26.8436 21.9987 26.6667V22.0001H22.932C23.0656 22.0002 23.196 21.9602 23.3066 21.8854C23.4171 21.8105 23.5026 21.7041 23.552 21.5801L24.6187 18.9134C24.659 18.8125 24.6739 18.7032 24.6623 18.5951C24.6507 18.4871 24.6128 18.3835 24.552 18.2934ZM22.4787 20.6667H21.332C21.1552 20.6667 20.9857 20.737 20.8606 20.862C20.7356 20.987 20.6654 21.1566 20.6654 21.3334V26.0001H18.7987V21.3334C18.7987 21.1566 18.7285 20.987 18.6034 20.862C18.4784 20.737 18.3088 20.6667 18.132 20.6667H16.6654V19.3334H18.132C18.3088 19.3334 18.4784 19.2632 18.6034 19.1382C18.7285 19.0131 18.7987 18.8436 18.7987 18.6667V16.5334C18.8005 15.8621 19.0679 15.2187 19.5426 14.744C20.0173 14.2693 20.6607 14.0018 21.332 14.0001H22.7987V15.3334H22.2654C22.0396 15.3005 21.8096 15.3143 21.5894 15.374C21.3692 15.4336 21.1636 15.5378 20.9854 15.6801C20.8772 15.7933 20.793 15.9273 20.7381 16.074C20.6831 16.2207 20.6583 16.3769 20.6654 16.5334V18.6667C20.6654 18.8436 20.7356 19.0131 20.8606 19.1382C20.9857 19.2632 21.1552 19.3334 21.332 19.3334H23.012L22.4787 20.6667Z" fill="white"/>
</svg>
