<svg width="40" height="40" viewBox="0 0 40 40" fill="none" xmlns="http://www.w3.org/2000/svg">
<circle cx="20" cy="20" r="20" fill="#FFC265"/>
<path d="M20 16.6666C19.3407 16.6666 18.6962 16.8621 18.1481 17.2284C17.5999 17.5946 17.1727 18.1152 16.9204 18.7243C16.6681 19.3334 16.6021 20.0036 16.7307 20.6502C16.8593 21.2968 17.1768 21.8908 17.643 22.3569C18.1091 22.8231 18.7031 23.1406 19.3497 23.2692C19.9963 23.3978 20.6665 23.3318 21.2756 23.0795C21.8847 22.8272 22.4053 22.4 22.7715 21.8518C23.1378 21.3037 23.3333 20.6592 23.3333 19.9999C23.3333 19.1159 22.9821 18.268 22.357 17.6429C21.7319 17.0178 20.884 16.6666 20 16.6666ZM20 21.9999C19.6044 21.9999 19.2177 21.8826 18.8888 21.6629C18.5599 21.4431 18.3036 21.1307 18.1522 20.7653C18.0008 20.3998 17.9612 19.9977 18.0384 19.6097C18.1156 19.2218 18.3061 18.8654 18.5858 18.5857C18.8655 18.306 19.2218 18.1155 19.6098 18.0383C19.9978 17.9612 20.3999 18.0008 20.7653 18.1522C21.1308 18.3035 21.4432 18.5599 21.6629 18.8888C21.8827 19.2177 22 19.6044 22 19.9999C22 20.5304 21.7893 21.0391 21.4142 21.4141C21.0391 21.7892 20.5304 21.9999 20 21.9999ZM23.3333 15.9999C23.2015 15.9999 23.0726 16.039 22.9629 16.1123C22.8533 16.1855 22.7679 16.2896 22.7174 16.4115C22.6669 16.5333 22.6537 16.6673 22.6795 16.7966C22.7052 16.926 22.7687 17.0448 22.8619 17.138C22.9551 17.2312 23.0739 17.2947 23.2033 17.3204C23.3326 17.3462 23.4666 17.333 23.5884 17.2825C23.7103 17.232 23.8144 17.1466 23.8876 17.037C23.9609 16.9273 24 16.7984 24 16.6666C24 16.4898 23.9297 16.3202 23.8047 16.1952C23.6797 16.0702 23.5101 15.9999 23.3333 15.9999ZM26.6266 17.4933C26.6156 16.9235 26.5074 16.3599 26.3066 15.8266C26.1205 15.3413 25.8344 14.9006 25.4668 14.5331C25.0993 14.1655 24.6586 13.8794 24.1733 13.6933C23.64 13.4925 23.0764 13.3843 22.5066 13.3733C21.86 13.3333 21.6466 13.3333 20 13.3333C18.3533 13.3333 18.14 13.3333 17.4933 13.3733C16.9236 13.3843 16.3599 13.4925 15.8266 13.6933C15.3414 13.8794 14.9006 14.1655 14.5331 14.5331C14.1656 14.9006 13.8795 15.3413 13.6933 15.8266C13.4926 16.3599 13.3844 16.9235 13.3733 17.4933C13.3333 18.1466 13.3333 18.3599 13.3333 19.9999C13.3333 21.6399 13.3333 21.8533 13.3733 22.5066C13.3844 23.0763 13.4926 23.64 13.6933 24.1733C13.8795 24.6585 14.1656 25.0993 14.5331 25.4668C14.9006 25.8343 15.3414 26.1204 15.8266 26.3066C16.3599 26.5073 16.9236 26.6155 17.4933 26.6266C18.16 26.6266 18.3533 26.6666 20 26.6666C21.6466 26.6666 21.86 26.6666 22.5066 26.6266C23.0764 26.6155 23.64 26.5073 24.1733 26.3066C24.6586 26.1204 25.0993 25.8343 25.4668 25.4668C25.8344 25.0993 26.1205 24.6585 26.3066 24.1733C26.5074 23.64 26.6156 23.0763 26.6266 22.5066C26.6266 21.8399 26.6666 21.6399 26.6666 19.9999C26.6666 18.3599 26.6666 18.1466 26.6266 17.4933ZM25.2933 22.4466C25.2816 22.8697 25.2029 23.2882 25.06 23.6866C24.9418 24.0015 24.7551 24.2861 24.5133 24.5199C24.2809 24.7618 23.9957 24.9466 23.68 25.0599C23.2807 25.2087 22.8593 25.2898 22.4333 25.2999C21.8066 25.2999 21.6133 25.3333 19.9933 25.3333C18.3733 25.3333 18.1866 25.3333 17.56 25.3333C17.1347 25.3223 16.7138 25.2435 16.3133 25.0999C15.9984 24.9818 15.7138 24.795 15.48 24.5533C15.2381 24.3209 15.0533 24.0356 14.94 23.7199C14.7918 23.3227 14.7107 22.9037 14.7 22.4799C14.7 21.8133 14.7 21.6466 14.7 20.0333C14.7 18.4199 14.7 18.2266 14.7 17.5866C14.7115 17.1607 14.7925 16.7396 14.94 16.3399C15.055 16.027 15.2397 15.7443 15.48 15.5133C15.7124 15.2714 15.9976 15.0865 16.3133 14.9733C16.7126 14.8245 17.134 14.7434 17.56 14.7333C18.1866 14.6666 18.38 14.6666 20 14.6666C21.62 14.6666 21.8133 14.6666 22.44 14.6666C22.8681 14.6775 23.2915 14.7585 23.6933 14.9066C24.0062 15.0216 24.2889 15.2063 24.52 15.4466C24.7619 15.679 24.9467 15.9642 25.06 16.2799C25.2232 16.6856 25.3156 17.1163 25.3333 17.5533C25.3333 18.2199 25.3666 18.3866 25.3666 19.9999C25.3666 21.6133 25.3333 21.8066 25.3333 22.4466H25.2933Z" fill="#212830"/>
</svg>
