<svg width="40" height="40" viewBox="0 0 40 40" fill="none" xmlns="http://www.w3.org/2000/svg">
<circle cx="20" cy="20" r="19.5" stroke="white"/>
<path d="M27.3278 14.6334C27.3278 14.5156 27.2967 14.4 27.2375 14.2982C27.1784 14.1963 27.0933 14.112 26.9909 14.0538C26.8886 13.9956 26.7726 13.9655 26.6549 13.9667C26.5371 13.9679 26.4218 14.0002 26.3206 14.0605C25.9304 14.2927 25.5103 14.4706 25.0719 14.5891C24.4459 14.052 23.6475 13.758 22.8226 13.761C21.9176 13.7621 21.0485 14.1147 20.3987 14.7446C19.749 15.3745 19.3694 16.2322 19.3402 17.1367C17.5562 16.8522 15.9393 15.921 14.7978 14.5208C14.729 14.4373 14.6412 14.3716 14.5417 14.3293C14.4422 14.2869 14.334 14.269 14.2262 14.2773C14.1184 14.2861 14.0145 14.3211 13.9233 14.3792C13.8321 14.4373 13.7564 14.5167 13.7028 14.6106C13.4278 15.0905 13.2698 15.6284 13.2418 16.1808C13.2137 16.7332 13.3163 17.2844 13.5413 17.7896L13.54 17.7909C13.4389 17.8532 13.3555 17.9404 13.2977 18.0441C13.2399 18.1478 13.2097 18.2646 13.2099 18.3834C13.2087 18.4813 13.2146 18.5792 13.2275 18.6763C13.2956 19.5152 13.6673 20.3004 14.2731 20.8847C14.232 20.963 14.2069 21.0486 14.1993 21.1367C14.1917 21.2248 14.2017 21.3135 14.2288 21.3977C14.4929 22.2205 15.0545 22.9151 15.8037 23.3456C15.0425 23.64 14.2206 23.7426 13.4104 23.6444C13.2605 23.6256 13.1086 23.6583 12.9797 23.7372C12.8507 23.8161 12.7524 23.9364 12.7009 24.0785C12.6494 24.2205 12.6476 24.3759 12.696 24.5191C12.7444 24.6622 12.84 24.7847 12.9671 24.8664C14.3605 25.7639 15.9829 26.241 17.6403 26.2408C19.5198 26.262 21.3536 25.6614 22.8564 24.5324C24.3593 23.4035 25.4469 21.8096 25.9501 19.9986C26.1855 19.2097 26.3057 18.3909 26.3069 17.5676C26.3069 17.524 26.3069 17.4791 26.3063 17.4342C26.6544 17.0588 26.924 16.6177 27.0994 16.1368C27.2748 15.6558 27.3524 15.1447 27.3278 14.6334ZM25.1233 16.7747C25.0132 16.9049 24.9575 17.0725 24.9677 17.2428C24.9742 17.3528 24.9736 17.4634 24.9736 17.5676C24.9722 18.2633 24.8703 18.9552 24.6709 19.6217C24.2599 21.1626 23.3436 22.521 22.0689 23.4794C20.7942 24.4378 19.2347 24.9406 17.6403 24.9075C17.0675 24.9077 16.4968 24.8403 15.9398 24.707C16.65 24.4781 17.3142 24.1252 17.9013 23.6646C18.0095 23.5795 18.0886 23.4629 18.1279 23.331C18.1672 23.1991 18.1647 23.0583 18.1208 22.9278C18.0769 22.7974 17.9936 22.6837 17.8825 22.6024C17.7714 22.5212 17.6379 22.4763 17.5003 22.4739C16.9462 22.4653 16.417 22.2419 16.0244 21.8508C16.124 21.832 16.2229 21.8085 16.3212 21.7805C16.4653 21.7395 16.5913 21.6513 16.679 21.5299C16.7668 21.4086 16.8111 21.2613 16.805 21.1117C16.7988 20.9621 16.7425 20.8189 16.645 20.7052C16.5476 20.5915 16.4147 20.514 16.2679 20.4849C15.9462 20.4214 15.6436 20.2846 15.3834 20.0851C15.1232 19.8856 14.9126 19.6287 14.7679 19.3346C14.8883 19.351 15.0096 19.3612 15.1311 19.3652C15.2755 19.3673 15.4169 19.3235 15.5347 19.2401C15.6526 19.1566 15.7408 19.0379 15.7867 18.901C15.8307 18.7628 15.8285 18.6141 15.7803 18.4773C15.7321 18.3406 15.6407 18.2232 15.5198 18.1431C15.2266 17.9478 14.9864 17.6828 14.8207 17.3718C14.6551 17.0608 14.5691 16.7136 14.5706 16.3613C14.5706 16.317 14.5719 16.2727 14.5745 16.2291C16.0687 17.6226 18.0067 18.4441 20.0472 18.5488C20.1502 18.5528 20.2527 18.5334 20.3471 18.492C20.4415 18.4506 20.5253 18.3883 20.5921 18.3098C20.6582 18.2306 20.705 18.137 20.7289 18.0366C20.7527 17.9362 20.7529 17.8316 20.7294 17.731C20.6913 17.572 20.6719 17.409 20.6715 17.2454C20.6721 16.6751 20.8989 16.1283 21.3022 15.725C21.7055 15.3217 22.2522 15.0949 22.8225 15.0943C23.116 15.0935 23.4064 15.1536 23.6754 15.2707C23.9445 15.3878 24.1863 15.5594 24.3857 15.7747C24.4626 15.8574 24.5594 15.9191 24.6668 15.9538C24.7743 15.9886 24.8888 15.9953 24.9996 15.9733C25.2735 15.92 25.5434 15.8482 25.8076 15.7584C25.6274 16.1271 25.3971 16.469 25.1233 16.7747Z" fill="white"/>
</svg>
