<svg width="40" height="40" viewBox="0 0 40 40" fill="none" xmlns="http://www.w3.org/2000/svg">
<circle cx="20" cy="20" r="19.5" stroke="white"/>
<path d="M22.2654 19.4399L18.9987 17.3332C18.8974 17.2747 18.7824 17.2439 18.6654 17.2439C18.5483 17.2439 18.4334 17.2747 18.332 17.3332C18.2332 17.3902 18.1506 17.4716 18.0923 17.5697C18.0339 17.6677 18.0017 17.7791 17.9987 17.8932V22.1065C17.9996 22.2253 18.0322 22.3417 18.0931 22.4437C18.1541 22.5457 18.2411 22.6295 18.3454 22.6865C18.4423 22.7436 18.5529 22.7736 18.6654 22.7732C18.7835 22.7651 18.8978 22.7285 18.9987 22.6665L22.2654 20.5599C22.3589 20.4994 22.4359 20.4165 22.4891 20.3187C22.5424 20.2209 22.5703 20.1113 22.5703 19.9999C22.5703 19.8885 22.5424 19.7789 22.4891 19.681C22.4359 19.5832 22.3589 19.5003 22.2654 19.4399ZM19.332 20.8799V19.1199L20.6654 19.9999L19.332 20.8799ZM24.9187 15.0065L23.8854 14.8732C21.326 14.5598 18.738 14.5598 16.1787 14.8732L15.1454 15.0065C14.6485 15.0606 14.189 15.2958 13.8545 15.6672C13.52 16.0385 13.334 16.5201 13.332 17.0199V22.9799C13.3363 23.4722 13.519 23.9464 13.8464 24.3142C14.1738 24.682 14.6235 24.9185 15.112 24.9799L16.1454 25.1065C17.4239 25.2619 18.7108 25.3376 19.9987 25.3332C21.2869 25.3332 22.5738 25.253 23.852 25.0932L24.8854 24.9665C25.3739 24.9052 25.8236 24.6687 26.151 24.3009C26.4784 23.933 26.6611 23.4589 26.6654 22.9665V17.0199C26.6644 16.5252 26.483 16.0478 26.1554 15.6772C25.8277 15.3066 25.3762 15.0682 24.8854 15.0065H24.9187ZM25.3654 23.0065C25.3659 23.1745 25.303 23.3364 25.1893 23.46C25.0756 23.5836 24.9194 23.6598 24.752 23.6732L23.7187 23.7999C21.2705 24.1066 18.7936 24.1066 16.3454 23.7999L15.312 23.6732C15.1446 23.6598 14.9885 23.5836 14.8747 23.46C14.761 23.3364 14.6982 23.1745 14.6987 23.0065V17.0199C14.7066 16.8545 14.7724 16.6972 14.8845 16.5753C14.9966 16.4535 15.1479 16.3749 15.312 16.3532L16.312 16.1999C18.7605 15.8976 21.2369 15.8976 23.6854 16.1999L24.7187 16.3265C24.8828 16.3482 25.0341 16.4268 25.1462 16.5487C25.2583 16.6705 25.3241 16.8278 25.332 16.9932L25.3654 23.0065Z" fill="white"/>
</svg>
